{
  "accessors": [
    {
      "bufferView": 2,
      "componentType": 5126,
      "count": 1466,
      "max": [
        7.5,
        5.699999809265137,
        18.799999237060547
      ],
      "min": [
        -7.5,
        -5.800000190734863,
        15.0
      ],
      "type": "VEC3"
    },
    {
      "bufferView": 2,
      "byteOffset": 17592,
      "componentType": 5126,
      "count": 1466,
      "max": [
        1.0,
        1.0,
        1.0
      ],
      "min": [
        -1.0,
        -1.0,
        -1.0
      ],
      "type": "VEC3"
    },
    {
      "bufferView": 1,
      "componentType": 5126,
      "count": 1466,
      "max": [
        0.0,
        0.0
      ],
      "min": [
        0.0,
        0.0
      ],
      "type": "VEC2"
    },
    {
      "bufferView": 1,
      "byteOffset": 11728,
      "componentType": 5126,
      "count": 1466,
      "max": [
        0.0,
        0.0
      ],
      "min": [
        0.0,
        0.0
      ],
      "type": "VEC2"
    },
    {
      "bufferView": 0,
      "componentType": 5125,
      "count": 4656,
      "type": "SCALAR"
    },
    {
      "bufferView": 2,
      "byteOffset": 35184,
      "componentType": 5126,
      "count": 1066,
      "max": [
        20.733999252319336,
        9.0600004196167,
        29.18000030517578
      ],
      "min": [
        -20.733999252319336,
        -4.736000061035156,
        2.9820001125335693
      ],
      "type": "VEC3"
    },
    {
      "bufferView": 2,
      "byteOffset": 47976,
      "componentType": 5126,
      "count": 1066,
      "max": [
        0.9997040033340454,
        0.9999966621398926,
        1.0
      ],
      "min": [
        -0.9992689490318298,
        -0.9999967217445374,
        -1.0
      ],
      "type": "VEC3"
    },
    {
      "bufferView": 1,
      "byteOffset": 23456,
      "componentType": 5126,
      "count": 1066,
      "max": [
        0.9919999837875366,
        0.9890000224113464
      ],
      "min": [
        0.014999999664723873,
        0.008999999612569809
      ],
      "type": "VEC2"
    },
    {
      "bufferView": 1,
      "byteOffset": 31984,
      "componentType": 5126,
      "count": 1066,
      "max": [
        0.9919999837875366,
        0.9890000224113464
      ],
      "min": [
        0.014999999664723873,
        0.008999999612569809
      ],
      "type": "VEC2"
    },
    {
      "bufferView": 0,
      "byteOffset": 18624,
      "componentType": 5125,
      "count": 4380,
      "type": "SCALAR"
    },
    {
      "bufferView": 2,
      "byteOffset": 60768,
      "componentType": 5126,
      "count": 770,
      "max": [
        5.099999904632568,
        5.099999904632568,
        40.400001525878906
      ],
      "min": [
        -5.099999904632568,
        -5.099999904632568,
        28.81999969482422
      ],
      "type": "VEC3"
    },
    {
      "bufferView": 2,
      "byteOffset": 70008,
      "componentType": 5126,
      "count": 770,
      "max": [
        0.9990761876106262,
        0.999076247215271,
        1.0
      ],
      "min": [
        -0.999076247215271,
        -0.999076247215271,
        -1.0
      ],
      "type": "VEC3"
    },
    {
      "bufferView": 1,
      "byteOffset": 40512,
      "componentType": 5126,
      "count": 770,
      "max": [
        0.9879999756813049,
        0.9819999933242798
      ],
      "min": [
        0.21299999952316284,
        0.014000000432133675
      ],
      "type": "VEC2"
    },
    {
      "bufferView": 1,
      "byteOffset": 46672,
      "componentType": 5126,
      "count": 770,
      "max": [
        0.9879999756813049,
        0.9819999933242798
      ],
      "min": [
        0.21299999952316284,
        0.014000000432133675
      ],
      "type": "VEC2"
    },
    {
      "bufferView": 1,
      "byteOffset": 52832,
      "componentType": 5126,
      "count": 770,
      "max": [
        0.9879999756813049,
        0.9819999933242798
      ],
      "min": [
        0.21299999952316284,
        0.014000000432133675
      ],
      "type": "VEC2"
    },
    {
      "bufferView": 0,
      "byteOffset": 36144,
      "componentType": 5125,
      "count": 3024,
      "type": "SCALAR"
    },
    {
      "bufferView": 2,
      "byteOffset": 79248,
      "componentType": 5126,
      "count": 1276,
      "max": [
        7.699999809265137,
        3.9600000381469727,
        34.599998474121094
      ],
      "min": [
        -7.699999809265137,
        -3.9600000381469727,
        16.020000457763672
      ],
      "type": "VEC3"
    },
    {
      "bufferView": 2,
      "byteOffset": 94560,
      "componentType": 5126,
      "count": 1276,
      "max": [
        1.0,
        1.0,
        1.0
      ],
      "min": [
        -1.0,
        -1.0,
        -1.0
      ],
      "type": "VEC3"
    },
    {
      "bufferView": 1,
      "byteOffset": 58992,
      "componentType": 5126,
      "count": 1276,
      "max": [
        0.9810000061988831,
        0.9290000200271606
      ],
      "min": [
        0.017999999225139618,
        0.03200000151991844
      ],
      "type": "VEC2"
    },
    {
      "bufferView": 1,
      "byteOffset": 69200,
      "componentType": 5126,
      "count": 1276,
      "max": [
        0.9810000061988831,
        0.9290000200271606
      ],
      "min": [
        0.017999999225139618,
        0.03200000151991844
      ],
      "type": "VEC2"
    },
    {
      "bufferView": 1,
      "byteOffset": 79408,
      "componentType": 5126,
      "count": 1276,
      "max": [
        0.9810000061988831,
        0.9290000200271606
      ],
      "min": [
        0.017999999225139618,
        0.03200000151991844
      ],
      "type": "VEC2"
    },
    {
      "bufferView": 0,
      "byteOffset": 48240,
      "componentType": 5125,
      "count": 4572,
      "type": "SCALAR"
    },
    {
      "bufferView": 2,
      "byteOffset": 109872,
      "componentType": 5126,
      "count": 2544,
      "max": [
        12.721467971801758,
        3.9600000381469727,
        22.31922721862793
      ],
      "min": [
        -12.721467971801758,
        -8.554441452026367,
        0.019999809563159943
      ],
      "type": "VEC3"
    },
    {
      "bufferView": 2,
      "byteOffset": 140400,
      "componentType": 5126,
      "count": 2544,
      "max": [
        1.0,
        1.0,
        1.0
      ],
      "min": [
        -1.0,
        -1.0,
        -1.0
      ],
      "type": "VEC3"
    },
    {
      "bufferView": 1,
      "byteOffset": 89616,
      "componentType": 5126,
      "count": 2544,
      "max": [
        0.0,
        0.0
      ],
      "min": [
        0.0,
        0.0
      ],
      "type": "VEC2"
    },
    {
      "bufferView": 1,
      "byteOffset": 109968,
      "componentType": 5126,
      "count": 2544,
      "max": [
        0.0,
        0.0
      ],
      "min": [
        0.0,
        0.0
      ],
      "type": "VEC2"
    },
    {
      "bufferView": 0,
      "byteOffset": 66528,
      "componentType": 5125,
      "count": 8832,
      "type": "SCALAR"
    },
    {
      "bufferView": 2,
      "byteOffset": 170928,
      "componentType": 5126,
      "count": 1294,
      "max": [
        11.566813468933105,
        2.647404670715332,
        27.669233322143555
      ],
      "min": [
        -11.566813468933105,
        -4.5254950523376465,
        16.262367248535156
      ],
      "type": "VEC3"
    },
    {
      "bufferView": 2,
      "byteOffset": 186456,
      "componentType": 5126,
      "count": 1294,
      "max": [
        0.990606963634491,
        0.9997327327728271,
        0.9997979998588562
      ],
      "min": [
        -0.990606963634491,
        -0.9995815753936768,
        -0.9997221827507019
      ],
      "type": "VEC3"
    },
    {
      "bufferView": 1,
      "byteOffset": 130320,
      "componentType": 5126,
      "count": 1294,
      "max": [
        0.0,
        0.0
      ],
      "min": [
        0.0,
        0.0
      ],
      "type": "VEC2"
    },
    {
      "bufferView": 1,
      "byteOffset": 140672,
      "componentType": 5126,
      "count": 1294,
      "max": [
        0.0,
        0.0
      ],
      "min": [
        0.0,
        0.0
      ],
      "type": "VEC2"
    },
    {
      "bufferView": 0,
      "byteOffset": 101856,
      "componentType": 5125,
      "count": 5424,
      "type": "SCALAR"
    },
    {
      "bufferView": 2,
      "byteOffset": 201984,
      "componentType": 5126,
      "count": 1742,
      "max": [
        5.986999988555908,
        6.204999923706055,
        47.15999984741211
      ],
      "min": [
        -5.986999988555908,
        -7.933000087738037,
        29.35700035095215
      ],
      "type": "VEC3"
    },
    {
      "bufferView": 2,
      "byteOffset": 222888,
      "componentType": 5126,
      "count": 1742,
      "max": [
        1.0,
        1.0,
        0.9983927607536316
      ],
      "min": [
        -1.0,
        -1.0,
        -1.0
      ],
      "type": "VEC3"
    },
    {
      "bufferView": 1,
      "byteOffset": 151024,
      "componentType": 5126,
      "count": 1742,
      "max": [
        0.0,
        0.0
      ],
      "min": [
        0.0,
        0.0
      ],
      "type": "VEC2"
    },
    {
      "bufferView": 1,
      "byteOffset": 164960,
      "componentType": 5126,
      "count": 1742,
      "max": [
        0.0,
        0.0
      ],
      "min": [
        0.0,
        0.0
      ],
      "type": "VEC2"
    },
    {
      "bufferView": 0,
      "byteOffset": 123552,
      "componentType": 5125,
      "count": 7872,
      "type": "SCALAR"
    }
  ],
  "asset": {
    "extras": {
      "author": "Neut2000 (https://sketchfab.com/Neut2000)",
      "license": "CC-BY-4.0 (http://creativecommons.org/licenses/by/4.0/)",
      "source": "https://sketchfab.com/3d-models/lego-batman-minifigure-5e16bd4ea6d94aa2b03ebc344428b553",
      "title": "Lego Batman Minifigure"
    },
    "generator": "Sketchfab-12.67.0",
    "version": "2.0"
  },
  "bufferViews": [
    {
      "buffer": 0,
      "byteLength": 155040,
      "name": "floatBufferViews",
      "target": 34963
    },
    {
      "buffer": 0,
      "byteLength": 178896,
      "byteOffset": 155040,
      "byteStride": 8,
      "name": "floatBufferViews",
      "target": 34962
    },
    {
      "buffer": 0,
      "byteLength": 243792,
      "byteOffset": 333936,
      "byteStride": 12,
      "name": "floatBufferViews",
      "target": 34962
    }
  ],
  "buffers": [
    {
      "byteLength": 577728,
      "uri": "scene.bin"
    }
  ],
  "images": [
    {
      "uri": "textures/Color_24_metallicRoughness.png"
    },
    {
      "uri": "textures/Color_26_56630_bump_metallicRoughness.png"
    },
    {
      "uri": "textures/Decoration_3626d783_baseColor.png"
    },
    {
      "uri": "textures/Decoration_3814d676_baseColor.png"
    }
  ],
  "materials": [
    {
      "doubleSided": true,
      "name": "Color_24",
      "pbrMetallicRoughness": {
        "baseColorFactor": [
          0.972549,
          0.780392,
          0.0941176,
          1.0
        ],
        "metallicRoughnessTexture": {
          "index": 0
        }
      }
    },
    {
      "doubleSided": true,
      "name": "Color_26_56630_bump",
      "pbrMetallicRoughness": {
        "baseColorFactor": [
          0.0627451,
          0.0627451,
          0.0627451,
          1.0
        ],
        "metallicRoughnessTexture": {
          "index": 1
        }
      }
    },
    {
      "doubleSided": true,
      "name": "Decoration_3626d783",
      "pbrMetallicRoughness": {
        "baseColorTexture": {
          "index": 2
        },
        "metallicRoughnessTexture": {
          "index": 0
        },
        "roughnessFactor": 0.0
      }
    },
    {
      "doubleSided": true,
      "name": "Decoration_3814d676",
      "pbrMetallicRoughness": {
        "baseColorTexture": {
          "index": 3
        },
        "metallicRoughnessTexture": {
          "index": 0
        }
      }
    },
    {
      "doubleSided": true,
      "name": "Color_26",
      "pbrMetallicRoughness": {
        "baseColorFactor": [
          0.0627451,
          0.0627451,
          0.0627451,
          1.0
        ],
        "metallicRoughnessTexture": {
          "index": 0
        },
        "roughnessFactor": 0.0
      }
    }
  ],
  "meshes": [
    {
      "name": "Object_0",
      "primitives": [
        {
          "attributes": {
            "NORMAL": 1,
            "POSITION": 0,
            "TEXCOORD_0": 2,
            "TEXCOORD_1": 3
          },
          "indices": 4,
          "material": 0,
          "mode": 4
        }
      ]
    },
    {
      "name": "Object_1",
      "primitives": [
        {
          "attributes": {
            "NORMAL": 6,
            "POSITION": 5,
            "TEXCOORD_0": 7,
            "TEXCOORD_1": 8
          },
          "indices": 9,
          "material": 1,
          "mode": 4
        }
      ]
    },
    {
      "name": "Object_2",
      "primitives": [
        {
          "attributes": {
            "NORMAL": 11,
            "POSITION": 10,
            "TEXCOORD_0": 12,
            "TEXCOORD_1": 13,
            "TEXCOORD_2": 14
          },
          "indices": 15,
          "material": 2,
          "mode": 4
        }
      ]
    },
    {
      "name": "Object_3",
      "primitives": [
        {
          "attributes": {
            "NORMAL": 17,
            "POSITION": 16,
            "TEXCOORD_0": 18,
            "TEXCOORD_1": 19,
            "TEXCOORD_2": 20
          },
          "indices": 21,
          "material": 3,
          "mode": 4
        }
      ]
    },
    {
      "name": "Object_4",
      "primitives": [
        {
          "attributes": {
            "NORMAL": 23,
            "POSITION": 22,
            "TEXCOORD_0": 24,
            "TEXCOORD_1": 25
          },
          "indices": 26,
          "material": 4,
          "mode": 4
        }
      ]
    },
    {
      "name": "Object_5",
      "primitives": [
        {
          "attributes": {
            "NORMAL": 28,
            "POSITION": 27,
            "TEXCOORD_0": 29,
            "TEXCOORD_1": 30
          },
          "indices": 31,
          "material": 4,
          "mode": 4
        }
      ]
    },
    {
      "name": "Object_6",
      "primitives": [
        {
          "attributes": {
            "NORMAL": 33,
            "POSITION": 32,
            "TEXCOORD_0": 34,
            "TEXCOORD_1": 35
          },
          "indices": 36,
          "material": 4,
          "mode": 4
        }
      ]
    }
  ],
  "nodes": [
    {
      "children": [
        1
      ],
      "matrix": [
        1.0,
        0.0,
        0.0,
        0.0,
        0.0,
        2.220446049250313e-16,
        -1.0,
        0.0,
        0.0,
        1.0,
        2.220446049250313e-16,
        0.0,
        0.0,
        0.0,
        0.0,
        1.0
      ],
      "name": "Sketchfab_model"
    },
    {
      "children": [
        2
      ],
      "name": "root"
    },
    {
      "children": [
        3
      ],
      "matrix": [
        1.0,
        0.0,
        0.0,
        0.0,
        0.0,
        2.220446049250313e-16,
        1.0,
        0.0,
        0.0,
        -1.0,
        2.220446049250313e-16,
        0.0,
        0.0,
        0.0,
        0.0,
        1.0
      ],
      "name": "GLTF_SceneRootNode"
    },
    {
      "children": [
        4
      ],
      "matrix": [
        1.0,
        0.0,
        -0.0,
        0.0,
        -0.0,
        0.0,
        -1.0,
        0.0,
        0.0,
        1.0,
        0.0,
        0.0,
        0.0,
        0.0,
        0.0,
        1.0
      ],
      "name": "RootNode (gltf orientation matrix)_0"
    },
    {
      "children": [
        5
      ],
      "name": "RootNode (model correction matrix)_1"
    },
    {
      "children": [
        6,
        8,
        10,
        12,
        14,
        16,
        18
      ],
      "name": "Untitled Model.obj.cleaner.materialmerger.gles_2"
    },
    {
      "children": [
        7
      ],
      "name": "_3"
    },
    {
      "mesh": 0,
      "name": "Object_7"
    },
    {
      "children": [
        9
      ],
      "name": "_4"
    },
    {
      "mesh": 1,
      "name": "Object_9"
    },
    {
      "children": [
        11
      ],
      "name": "_5"
    },
    {
      "mesh": 2,
      "name": "Object_11"
    },
    {
      "children": [
        13
      ],
      "name": "_6"
    },
    {
      "mesh": 3,
      "name": "Object_13"
    },
    {
      "children": [
        15
      ],
      "name": "_7"
    },
    {
      "mesh": 4,
      "name": "Object_15"
    },
    {
      "children": [
        17
      ],
      "name": "_8"
    },
    {
      "mesh": 5,
      "name": "Object_17"
    },
    {
      "children": [
        19
      ],
      "name": "_9"
    },
    {
      "mesh": 6,
      "name": "Object_19"
    }
  ],
  "samplers": [
    {
      "magFilter": 9729,
      "minFilter": 9987,
      "wrapS": 10497,
      "wrapT": 10497
    }
  ],
  "scene": 0,
  "scenes": [
    {
      "name": "Sketchfab_Scene",
      "nodes": [
        0
      ]
    }
  ],
  "textures": [
    {
      "sampler": 0,
      "source": 0
    },
    {
      "sampler": 0,
      "source": 1
    },
    {
      "sampler": 0,
      "source": 2
    },
    {
      "sampler": 0,
      "source": 3
    }
  ]
}
